<svg width="254" height="254" viewBox="0 0 254 254" xmlns="http://www.w3.org/2000/svg">
    <path
        d="M17.2665 253.307C12.9503 253.307 8.63695 251.66 5.34363 248.367C-1.2402 241.783 -1.2402 231.108 5.34363 224.527L224.524 5.34681C231.105 -1.23702 241.785 -1.23702 248.364 5.34681C254.95 11.9306 254.95 22.6058 248.364 29.1897L29.1837 248.37C25.896 251.66 21.5826 253.307 17.2665 253.307Z" />
    <path
        d="M236.447 253.307C232.133 253.307 227.817 251.66 224.527 248.367L5.34656 29.1867C-1.23727 22.6029 -1.23727 11.9277 5.34656 5.34388C11.9304 -1.23995 22.6084 -1.23995 29.1894 5.34388L248.369 224.524C254.956 231.108 254.956 241.783 248.369 248.364C245.076 251.66 240.76 253.307 236.447 253.307Z" />
</svg>