<svg width="285" height="285" viewBox="0 0 285 285" fill="white" xmlns="http://www.w3.org/2000/svg">
    <g clip-path="url(#clip0_461_85)">
        <path
            d="M131.711 0.244427C124.178 0.895856 109.358 3.50157 104.432 5.08943C103.536 5.37443 101.175 6.10728 99.1391 6.718C73.4484 14.6166 48.4906 31.8387 31.0241 53.743C20.2756 67.2601 11.3591 83.8716 6.71771 99.1394C6.107 101.134 5.45557 103.252 5.252 103.822C5.08914 104.392 4.55985 106.387 4.112 108.3C0.895569 121.899 0.244141 127.762 0.244141 142.5C0.244141 157.239 0.895569 163.102 4.112 176.7C4.55985 178.614 5.08914 180.609 5.252 181.179C5.45557 181.749 6.107 183.825 6.71771 185.861C11.3591 201.129 20.2756 217.74 31.0241 231.257C48.4906 253.162 73.4484 270.384 99.1391 278.282C101.175 278.893 103.536 279.626 104.432 279.911C107.486 280.888 117.461 282.924 123.771 283.86C129.227 284.634 131.711 284.756 142.5 284.756C153.289 284.756 155.773 284.634 161.228 283.86C167.539 282.924 177.514 280.888 180.568 279.911C181.463 279.626 183.866 278.893 185.861 278.282C211.551 270.384 236.509 253.162 253.976 231.257C264.724 217.74 273.641 201.129 278.282 185.861C278.893 183.825 279.544 181.749 279.748 181.179C279.911 180.609 280.44 178.614 280.888 176.7C284.104 163.102 284.756 157.239 284.756 142.5C284.756 127.762 284.104 121.899 280.888 108.3C280.44 106.387 279.911 104.392 279.748 103.822C279.544 103.252 278.893 101.134 278.282 99.1394C275.758 90.9151 270.546 79.108 266.068 71.3723C245.67 36.643 212.488 12.133 173.85 3.42014C163.793 1.14014 156.587 0.36657 144.739 0.244427C138.713 0.162998 132.851 0.162998 131.711 0.244427ZM158.989 37.0094C205.281 44.623 240.296 79.678 248.031 126.214C248.805 130.937 248.927 133.217 248.927 142.5C248.927 151.783 248.805 154.063 248.031 158.786C240.255 205.404 205.403 240.255 158.786 248.032C154.063 248.805 151.783 248.927 142.5 248.927C133.217 248.927 130.937 248.805 126.214 248.032C79.5963 240.255 44.7449 205.404 36.9684 158.786C36.1949 154.063 36.0727 151.783 36.0727 142.5C36.0727 130.53 36.6427 125.563 39.167 115.832C48.8163 78.3751 78.3749 48.8166 115.832 39.1673C119.944 38.1087 127.313 36.8059 133.136 36.073C133.909 35.9916 138.876 35.9509 144.128 36.0323C151.498 36.1137 154.918 36.358 158.989 37.0094Z" />
    </g>
    <defs>
        <clipPath id="clip0_461_85">
            <rect width="285" height="285" fill="white" />
        </clipPath>
    </defs>
</svg>